<?xml version="1.0" encoding="UTF-8"?>
<svg width="360px" height="424px" viewBox="0 0 360 424" version="1.1" xmlns="http://www.w3.org/2000/svg" xmlns:xlink="http://www.w3.org/1999/xlink">
    <!-- Generator: Sketch 46.2 (44496) - http://www.bohemiancoding.com/sketch -->
    <title>grunt-logo</title>
    <desc>Created with Sketch.</desc>
    <defs>
        <polygon id="path-1" points="239.184 226.94 0.016 226.94 0.016 0.175 239.184 0.175"></polygon>
    </defs>
    <g id="Page-1" stroke="none" stroke-width="1" fill="none" fill-rule="evenodd">
        <g id="grunt-logo" transform="translate(0.000000, -1.000000)">
            <path d="M67.714,82.418 C67.714,82.418 73.451,104.545 74.269,111.921 C75.09,119.296 59.518,135.686 59.518,143.882 C59.518,152.078 62.792,166.829 80.824,174.206 C98.855,181.582 101.312,200.43 101.312,211.906 C101.312,223.379 94.757,245.504 94.757,245.504 C94.757,245.504 90.661,300.412 112.787,310.246 C134.912,320.079 129.997,320.079 134.912,320.079 C139.828,320.079 175.889,334.834 197.195,329.097 C218.503,323.359 224.236,316.805 224.236,316.805 C224.236,316.805 245.546,318.441 252.102,299.591 C258.66,280.744 262.756,241.408 260.297,223.377 C257.838,205.345 254.561,181.583 269.311,173.386 C284.065,165.19 299.635,155.359 297.176,147.163 C294.717,138.967 281.607,127.492 281.607,127.492 C281.607,127.492 278.328,107.006 280.785,102.088 C283.242,97.17 297.995,84.875 289.799,75.862 C281.607,66.849 266.852,66.849 266.852,66.849 L248.005,68.486 C248.005,68.486 216.044,39.804 174.248,41.443 C132.454,43.082 106.226,68.486 106.226,68.486 C106.226,68.486 92.296,63.568 80.002,68.486 C67.708,73.404 65.257,68.484 67.714,82.418" id="Fill-1" fill="#EEA22E"></path>
            <path d="M142.597,204.435 C142.597,204.435 126.368,229.25 114.464,246.859 C112.622,249.583 126.368,249.772 126.368,249.772 L142.597,204.435" id="Fill-2" fill="#DA7F2E"></path>
            <path d="M150.324,152.987 C150.324,152.987 145.433,165.192 142.752,171.662 C139.843,178.696 128.753,182.195 128.753,182.195 C128.753,182.195 134.501,176.165 134.501,160.89 C134.501,154.48 142.775,151.933 142.775,151.933 L150.324,152.987" id="Fill-3" fill="#DA7F2E"></path>
            <path d="M145.382,159.888 C145.382,159.888 135.359,171.819 116.749,165.137 C98.134,158.457 96.226,134.592 96.226,127.91 C96.226,121.229 131.543,134.592 136.317,137.456 C141.091,140.32 150.154,151.773 145.382,159.888" id="Fill-4" fill="#DA7F2E"></path>
            <path d="M75.083,32.397 C75.083,32.397 92.263,29.054 103.716,38.123 C115.174,47.19 118.511,54.35 118.511,54.35 L99.206,69.654 C99.206,69.654 89.877,65.329 87.014,52.919 C84.15,40.51 86.06,34.784 75.083,32.397" id="Fill-5" fill="#DA7F2E"></path>
            <path d="M140.371,125.425 C132.974,114.925 120.784,110.345 111.051,109.585 C94.455,108.287 86.576,114.155 86.576,114.155 C86.576,114.155 113.756,115.306 121.59,125.595 C136.175,144.746 157.451,146.301 160.852,142.096 C156.918,142.292 152.59,140.343 147.958,135.962 C145.064,133.222 142.718,128.758 140.371,125.425" id="Fill-6" fill="#DA7F2E"></path>
            <path d="M94.488,162.552 C94.488,162.552 64.331,152.185 70.063,141.687 C75.789,131.185 71.231,125.465 71.231,125.465 C71.231,125.465 54.392,138.035 58.683,151.397 C61.32,159.599 65.744,165.537 90.037,176.922 C101.689,198.565 92.442,237.522 92.997,237.705 C93.92,238.012 109.357,230.075 108.303,193.628 C107.982,182.436 107.087,167.157 94.488,162.552" id="Fill-7" fill="#DA7F2E"></path>
            <path d="M134.006,51.072 C121.361,57.496 104.038,66.442 104.038,66.442 L110.856,69.853 C110.205,70.907 109.891,71.535 109.891,71.535 L116.889,74.717 C116.889,74.717 133.972,87.093 144.439,95.048 C140.949,84.303 130.705,67.42 130.705,67.42 C130.705,67.42 127.803,59.664 134.006,51.072" id="Fill-8" fill="#DA7F2E"></path>
            <path d="M176.014,312.932 C137.148,312.932 123.983,293.2 123.983,293.2 L130.057,307.991 C132.353,314.391 156.845,334.302 175.955,334.302" id="Fill-9" fill="#DA7F2E"></path>
            <path d="M128.242,279.869 C128.242,279.869 131.817,301.723 146.135,301.723 C158.302,301.723 161.888,283.263 161.888,279.447 L128.242,279.869" id="Fill-10" fill="#DA7F2E"></path>
            <path d="M104.415,246.91 C105.687,243.408 110.141,229.25 111.571,216.365 C113.287,200.933 112.662,178.362 112.662,178.362 C112.662,178.362 108.842,193.157 105.501,195.548 C102.162,197.933 95.956,214.158 95.956,214.158 C95.956,214.158 92.631,238.314 91.049,246.434 C95.427,247.311 99.113,244.73 104.415,246.91" id="Fill-11" fill="#DA7F2E"></path>
            <path d="M69.838,151.16 C69.838,151.16 77.949,148.294 80.337,130.638 C82.723,112.978 77.472,97.706 77.472,97.706 C77.472,97.706 77.949,122.046 75.087,126.82 C72.221,131.592 69.838,133.023 66.495,139.23 C63.152,145.437 67.926,149.251 69.838,151.16" id="Fill-12" fill="#DA7F2E"></path>
            <path d="M79.523,36.574 L77.867,35.525 C72.984,35.691 79.523,36.574 79.523,36.574" id="Fill-13" fill="#F6BC68"></path>
            <path d="M140.608,45.844 C140.608,45.844 132.974,44.572 129.154,38.846 C125.334,33.118 114.519,21.662 97.275,21.534 C80.033,21.405 62.974,26.116 62.974,26.116 L77.865,35.525 C79.44,35.475 82.194,35.495 86.748,35.647 C105.437,36.268 108.314,54.753 108.314,54.753 L174.176,45.685" id="Fill-14" fill="#EEA22E"></path>
            <path d="M146.974,147.94 C146.974,147.94 138.064,156.85 124.38,153.984 C110.697,151.123 102.423,145.077 101.787,134.575 C101.151,124.075 104.653,119.939 104.653,119.939 C104.653,119.939 119.925,124.715 127.246,131.079 C134.564,137.441 139.972,147.623 146.974,147.94" id="Fill-15" fill="#FFFFFE"></path>
            <path d="M136.19,144.757 C136.19,144.757 128.463,148.287 119.826,145.412 C108.52,141.641 107.767,129.883 107.767,129.883 C107.767,129.883 100.832,150.236 120.277,154.155 C135.874,157.297 145.098,148.259 145.098,148.259 L136.19,144.757" id="Fill-16" fill="#C3C3BE"></path>
            <path d="M141.681,41.526 C140.85,24.07 155.16,10.167 160.118,9.575 C160.392,12.533 159.841,24.07 164.799,27.619 C166.243,18.195 171.123,7.805 190.393,0.998 C186.266,11.944 189.842,21.113 191.545,25.363 C204.704,13.419 213.57,15.393 213.57,15.393 C213.57,15.393 204.428,31.17 208.003,41.523 C181.586,39.451 141.81,44.329 141.681,41.526" id="Fill-17" fill="#3A2D1E"></path>
            <path d="M85.679,68.115 C79.376,62.887 84.074,58.034 83.576,52.092 C83.306,48.931 83.056,45.948 82.013,44.303 C76.213,35.144 62.529,32.365 62.393,32.336 L55.971,31.078 L60.222,26.105 C60.773,25.461 78.231,8.804 105.248,17.526 C124.146,23.622 138.136,44.29 138.656,45.125 L129.181,49.58 C129.069,49.404 118.009,29.978 101.797,24.75 C88.69,20.521 76.612,24.544 71.437,27.18 C76.938,29.376 84.129,33.376 88.461,40.216 C90.506,43.447 90.851,47.515 91.184,51.454 C91.623,56.669 92.034,61.592 95.872,64.78 L85.679,68.115" id="Fill-18" fill="#3A2D1E"></path>
            <path d="M68.846,144.448 C68.846,144.448 76.787,134.602 79.139,115.44 C80.063,107.894 78.422,93.008 75.796,87.28 C76.273,101.359 72.694,115.44 72.694,115.44 C72.694,115.44 70.281,141.584 68.846,144.448" id="Fill-19" fill="#3A2D1E"></path>
            <path d="M110.718,58.17 C110.714,58.149 108.17,47.032 101.117,41.42 C91.168,33.506 79.02,37.716 78.903,37.753 L77.139,32.304 C77.727,32.113 91.611,27.738 104.407,36.733 C117.28,45.779 118.825,53.979 118.959,54.886 L110.718,58.17" id="Fill-20" fill="#3A2D1E"></path>
            <path d="M93.786,137.386 C93.786,137.386 89.62,131.421 90.37,124.863 C90.743,121.624 92.244,118.298 94.924,117.119 C99.904,114.931 102.111,120.576 102.111,120.576 C102.111,120.576 95.102,122.306 93.786,137.386" id="Fill-21" fill="#3A2D1E"></path>
            <path d="M139.529,146.476 C139.703,146.801 139.792,146.983 139.792,146.983 C139.792,146.983 126.798,156.735 113.481,146.839 C106.353,141.537 107.027,128.421 109.211,122.86 C114.89,124.147 119.707,126.468 123.733,129.177 C118.645,124.636 114.191,121.293 114.203,121.215 L108.42,119.578 L97.18,115.724 C97.036,116.582 92.936,135.798 104.771,148.893 C110.016,154.698 134.605,167.7 146.281,145.469 L139.529,146.476" id="Fill-22" fill="#3A2D1E"></path>
            <path d="M138.312,147.905 C145.628,159.04 164.087,152.677 163.769,140.905 C163.769,140.905 151.435,147.711 140.538,135.179 C134.176,127.861 113.79,107.687 86.144,114.392 C105.236,118.59 130.511,136.033 138.312,147.905" id="Fill-23" fill="#3A2D1E"></path>
            <path d="M83.561,179.332 C85.321,180.348 91.528,186.776 91.532,196.39 C91.532,201.211 91.051,225.43 88.666,240.227 C92.255,242.559 94.755,243.055 98.329,245.432 C100.118,228.296 101.401,203.46 100.803,193.434 C100.12,182.004 94,174.334 88.325,171.064 C86.548,170.042 84.691,169.037 82.821,168.025 C73.101,162.773 63.05,157.34 63.05,148.064 C63.05,140.806 65.871,138.537 68.857,136.131 L69.179,135.87 C71.161,134.269 73.404,132.453 74.733,129.47 C78.359,121.317 78.952,100.549 74.733,95.277 C72.63,92.65 66.995,83.816 68.615,77.88 C69.232,75.614 70.659,73.936 72.982,72.745 C75.44,71.486 78.761,70.848 82.849,70.848 C90.879,70.848 99.785,73.292 104.38,74.748 C120.799,79.951 140.612,94.956 146.291,99.431 C146.453,99.555 146.55,99.629 146.567,99.641 L150.201,102.168 L147.928,98.365 C147.788,98.128 133.394,74.46 107.657,65.781 C102.65,64.093 92.813,61.261 83.146,61.261 C77.39,61.261 72.507,62.266 68.64,64.246 C63.926,66.657 60.735,70.504 59.408,75.367 C56.158,87.288 66.743,100.561 67.104,100.984 C68.339,103.188 68.861,119.19 66.01,125.595 C65.619,126.48 64.543,127.348 63.183,128.446 C62.757,128.791 62.28,129.148 61.774,129.532 C57.752,132.568 51.67,137.155 51.67,147.729 C51.67,162.196 66.332,170.04 78.115,176.347 C80.048,177.386 81.894,178.37 83.561,179.332" id="Fill-24" fill="#3A2D1E"></path>
            <path d="M85.679,68.115 C79.376,62.887 84.074,58.034 83.576,52.092 C83.306,48.931 83.056,45.948 82.013,44.303 C76.213,35.144 62.529,32.365 62.393,32.336 L55.971,31.078 L60.222,26.105 C60.773,25.461 78.231,8.804 105.248,17.526 C124.146,23.622 138.136,44.29 138.656,45.125 L129.181,49.58 C129.069,49.404 118.009,29.978 101.797,24.75 C88.69,20.521 76.612,24.544 71.437,27.18 C76.938,29.376 84.129,33.376 88.461,40.216 C90.506,43.447 90.851,47.515 91.184,51.454 C91.623,56.669 92.034,61.592 95.872,64.78 L85.679,68.115" id="Fill-25" fill="#3A2D1E"></path>
            <path d="M85.475,69.187 L85.068,68.85 C80.394,64.971 81.223,61.149 82.026,57.453 C82.391,55.747 82.775,53.983 82.62,52.173 C82.365,49.131 82.121,46.262 81.205,44.812 C75.681,36.092 62.334,33.298 62.202,33.272 L54.18,31.698 L59.497,25.482 C59.594,25.367 70.803,14.051 89.787,14.051 C94.962,14.051 100.264,14.913 105.539,16.616 C125.263,22.976 139.334,44.405 139.467,44.617 L140.036,45.527 L128.827,50.799 L128.376,50.086 C127.17,48.03 116.542,30.502 101.507,25.652 C97.814,24.46 93.924,23.858 89.948,23.858 C82.745,23.858 76.904,25.821 73.796,27.139 C78.99,29.478 85.289,33.415 89.275,39.701 C91.443,43.126 91.793,47.311 92.138,51.354 C92.56,56.381 92.959,61.109 96.485,64.038 L97.816,65.141 L85.475,69.187" id="Fill-26" fill="#3A2D1E"></path>
            <path d="M110.718,58.17 C110.714,58.149 108.17,47.032 101.117,41.42 C91.168,33.506 79.02,37.716 78.903,37.753 L77.139,32.304 C77.727,32.113 91.611,27.738 104.407,36.733 C117.28,45.779 118.825,53.979 118.959,54.886 L110.718,58.17" id="Fill-27" fill="#3A2D1E"></path>
            <path d="M86.75,35.648 C92.402,35.648 97.58,37.386 101.711,40.672 C107.701,45.442 110.517,53.864 111.369,56.883 L117.861,54.295 C117.273,52.003 114.685,45.125 103.862,37.515 C98.683,33.875 92.726,32.031 86.15,32.031 C82.542,32.031 79.739,32.605 78.354,32.955 L79.525,36.574 C80.883,36.209 83.497,35.648 86.75,35.648 Z M110.035,59.47 L109.787,58.376 C109.76,58.269 107.265,47.532 100.521,42.17 C96.677,39.109 92.041,37.555 86.75,37.555 C82.62,37.555 79.552,38.541 79.217,38.656 L78.305,38.96 L75.938,31.691 L76.845,31.398 C77.252,31.269 80.937,30.12 86.15,30.12 C93.027,30.12 99.529,32.138 104.961,35.952 C118.157,45.225 119.768,53.799 119.906,54.746 L120.021,55.493 L110.035,59.47 L110.035,59.47 Z" id="Fill-28" fill="#3A2D1E"></path>
            <path d="M145.537,296.48 L145.537,296.48 C142.717,296.48 139.839,295.457 137.844,293.73 C136.317,292.414 131.153,287.672 128.876,281.86 C128.026,279.688 128.217,277.949 129.45,276.698 C130.299,275.841 132.063,274.816 135.645,274.816 L138.193,274.813 C141.229,274.81 146.341,274.81 150.71,274.81 L154.899,274.81 C157.623,274.81 159.576,275.398 160.699,276.547 C162.141,278.029 161.679,279.914 161.276,280.906 C160.574,282.645 157.668,288.3 152.75,293.559 C150.99,295.441 148.427,296.48 145.537,296.48" id="Fill-29" fill="#3A2D1E"></path>
            <path d="M148.494,148.56 L138.312,147.905 C138.312,147.905 140.915,152.493 142.601,158.427 C144.505,165.139 140.86,174.948 140.86,174.948 C140.86,174.948 154.435,159.578 148.494,148.56" id="Fill-30" fill="#3A2D1E"></path>
            <path d="M135.783,323.365 C99.544,320.58 86.794,286.337 86.794,279.205 L96.258,279.209 L91.526,279.205 L96.258,279.205 C96.306,282.288 105.937,311.58 136.508,313.931 L135.783,323.365" id="Fill-31" fill="#3A2D1E"></path>
            <path d="M125.6,262.014 C125.034,258.74 124.975,255.637 125.666,252.587 C122.912,250.517 117.969,249.748 114.261,248.546 C111.229,246.627 95.713,250.513 84.456,236.89 C70.352,219.831 73.321,209.646 73.321,209.646 C69.705,213.664 66.2,212.133 60.687,230.867 C55.168,249.605 63.279,262.668 78.396,275.782 C85.537,281.978 95.634,284.529 104.318,285.506 C101.409,282.585 109.287,282.293 114.717,280.261 C114.284,275.877 115.009,271.621 118.278,268.193 C120.249,266.127 122.785,264.893 125.416,263.908 C125.563,263.568 125.687,263.254 125.827,262.928 C125.74,262.631 125.654,262.33 125.6,262.014" id="Fill-32" fill="#FFFFFE"></path>
            <path d="M114.644,280.147 C114.33,279.228 114.093,278.289 113.86,277.346 C113.608,276.314 112.359,273.394 113.9,276.729 C113.504,275.875 113.245,274.994 113.054,274.107 C88.571,274.076 67.273,257.268 71.388,221.929 C68.184,217.674 63.695,230.509 63.695,230.509 C63.695,230.509 51.439,266.097 83.093,279.89 C93.641,284.489 102.961,287.787 105.161,286.456 C109.741,287.387 113.877,284.193 115.427,282.093 C115.136,281.447 114.871,280.801 114.644,280.147" id="Fill-33" fill="#C3C3BE"></path>
            <path d="M125.159,256.89 C125.196,253.906 125.806,251.018 127.248,248.139 C127.349,247.94 127.466,247.751 127.574,247.558 C118.153,247.477 107.303,246.574 98.064,242.877 C87.909,238.814 75.206,224.918 73.023,208.59 C73.023,208.59 53.898,223.348 59.518,254.936 C64.793,284.598 89.614,294.268 117.922,295.903 C117.937,295.711 114.738,289.104 115.749,285.059 C99.675,286.227 81.7,280.017 73.023,265.738 C65.079,252.67 67.307,230.359 70.572,227.09 C78.536,252.22 107.191,257.328 125.159,256.89" id="Fill-34" fill="#3A2D1E"></path>
            <path d="M128.125,238.9 C123.031,253.85 112.626,265.947 112.626,265.947 C112.626,265.947 126.939,265.296 127.729,262.764 C128.314,260.897 140.653,232.012 145.389,198.175 C140.934,205.493 128.56,237.62 128.125,238.9" id="Fill-35" fill="#3A2D1E"></path>
            <path d="M209.215,204.435 C209.215,204.435 225.439,229.25 237.348,246.859 C239.189,249.583 225.439,249.772 225.439,249.772 L209.215,204.435" id="Fill-36" fill="#DA7F2E"></path>
            <path d="M201.486,152.987 C201.486,152.987 206.379,165.192 209.056,171.662 C211.965,178.696 223.055,182.195 223.055,182.195 C223.055,182.195 217.307,176.165 217.307,160.89 C217.307,154.48 209.033,151.933 209.033,151.933 L201.486,152.987" id="Fill-37" fill="#DA7F2E"></path>
            <path d="M206.428,159.888 C206.428,159.888 216.451,171.819 235.065,165.137 C253.68,158.456 255.588,134.592 255.588,127.91 C255.588,121.229 220.271,134.592 215.497,137.456 C210.723,140.32 201.656,151.773 206.428,159.888" id="Fill-38" fill="#DA7F2E"></path>
            <path d="M276.729,32.397 C276.729,32.397 259.549,29.054 248.092,38.123 C236.639,47.19 233.297,54.35 233.297,54.35 L252.603,69.652 C252.603,69.652 261.935,65.327 264.799,52.917 C267.66,40.51 265.752,34.784 276.729,32.397" id="Fill-39" fill="#DA7F2E"></path>
            <path d="M211.44,125.425 C218.838,114.925 231.023,110.345 240.761,109.585 C257.357,108.287 265.232,114.155 265.232,114.155 C265.232,114.155 238.053,115.306 230.218,125.595 C215.633,144.746 194.363,146.301 190.962,142.096 C194.895,142.292 199.225,140.343 203.854,135.962 C206.746,133.222 209.094,128.758 211.44,125.425" id="Fill-40" fill="#DA7F2E"></path>
            <path d="M257.323,162.552 C257.323,162.552 287.477,152.185 281.749,141.687 C276.023,131.185 280.577,125.465 280.577,125.465 C280.577,125.465 297.42,138.035 293.125,151.397 C290.488,159.599 286.064,165.537 261.771,176.922 C250.119,198.565 259.365,237.522 258.814,237.705 C257.891,238.012 242.455,230.075 243.51,193.628 C243.829,182.436 244.725,167.157 257.323,162.552" id="Fill-41" fill="#DA7F2E"></path>
            <path d="M217.807,51.072 C230.447,57.496 247.773,66.442 247.773,66.442 L240.956,69.853 C241.607,70.907 241.922,71.535 241.922,71.535 L234.924,74.717 C234.924,74.717 217.84,87.093 207.373,95.048 C210.859,84.303 221.104,67.42 221.104,67.42 C221.104,67.42 224.012,59.664 217.807,51.072" id="Fill-42" fill="#DA7F2E"></path>
            <path d="M175.8,312.932 C214.66,312.932 227.825,293.2 227.825,293.2 L221.755,307.991 C219.459,314.391 194.965,334.302 175.858,334.302" id="Fill-43" fill="#DA7F2E"></path>
            <path d="M223.57,279.869 C223.57,279.869 219.99,301.723 205.677,301.723 C193.512,301.723 189.926,283.263 189.926,279.447 L223.57,279.869" id="Fill-44" fill="#DA7F2E"></path>
            <path d="M247.397,246.91 C246.125,243.408 241.672,229.25 240.236,216.365 C238.521,200.933 239.15,178.362 239.15,178.362 C239.15,178.362 242.97,193.157 246.307,195.548 C249.65,197.933 255.853,214.158 255.853,214.158 C255.853,214.158 259.177,238.314 260.759,246.434 C256.381,247.311 252.699,244.73 247.397,246.91" id="Fill-45" fill="#DA7F2E"></path>
            <path d="M281.977,151.16 C281.977,151.16 273.861,148.294 271.477,130.638 C269.092,112.978 274.342,97.706 274.342,97.706 C274.342,97.706 273.861,122.046 276.727,126.82 C279.593,131.594 281.977,133.023 285.318,139.23 C288.656,145.435 283.884,149.251 281.977,151.16" id="Fill-46" fill="#DA7F2E"></path>
            <path d="M272.287,36.574 L273.946,35.525 C278.83,35.691 272.287,36.574 272.287,36.574" id="Fill-47" fill="#F6BC68"></path>
            <path d="M211.2,45.844 C211.2,45.844 218.838,44.572 222.654,38.846 C226.474,33.118 237.293,21.662 254.537,21.534 C271.779,21.405 288.838,26.116 288.838,26.116 L273.946,35.525 C272.371,35.475 269.617,35.495 265.06,35.647 C246.375,36.268 243.498,54.753 243.498,54.753 L177.638,45.685" id="Fill-48" fill="#EEA22E"></path>
            <path d="M204.838,147.94 C204.838,147.94 213.748,156.85 227.428,153.984 C241.111,151.123 249.385,145.077 250.021,134.575 C250.656,124.075 247.158,119.939 247.158,119.939 C247.158,119.939 231.883,124.715 224.565,131.079 C217.248,137.443 211.84,147.623 204.838,147.94" id="Fill-49" fill="#FFFFFE"></path>
            <path d="M215.618,144.757 C215.618,144.757 223.349,148.287 231.982,145.412 C243.291,141.641 244.045,129.883 244.045,129.883 C244.045,129.883 250.977,150.236 231.531,154.155 C215.938,157.297 206.711,148.259 206.711,148.259 L215.618,144.757" id="Fill-50" fill="#C3C3BE"></path>
            <path d="M266.131,68.115 C272.434,62.887 267.74,58.034 268.238,52.092 C268.504,48.931 268.754,45.948 269.797,44.303 C275.598,35.144 289.28,32.365 289.421,32.336 L295.844,31.078 L291.592,26.105 C291.041,25.461 273.583,8.804 246.563,17.526 C227.668,23.622 213.678,44.29 213.157,45.125 L222.629,49.58 C222.744,49.404 233.805,29.978 250.018,24.75 C263.123,20.521 275.201,24.544 280.373,27.18 C274.876,29.376 267.682,33.376 263.349,40.216 C261.305,43.447 260.963,47.515 260.631,51.454 C260.191,56.669 259.776,61.592 255.938,64.78 L266.131,68.115" id="Fill-51" fill="#3A2D1E"></path>
            <path d="M282.962,144.448 C282.962,144.448 275.025,134.602 272.673,115.44 C271.749,107.894 273.387,93.008 276.012,87.28 C275.535,101.359 279.117,115.44 279.117,115.44 C279.117,115.44 281.531,141.584 282.962,144.448" id="Fill-52" fill="#3A2D1E"></path>
            <path d="M241.094,58.17 C241.098,58.149 243.642,47.032 250.695,41.42 C260.644,33.506 272.792,37.716 272.905,37.753 L274.674,32.304 C274.084,32.113 260.201,27.738 247.4,36.733 C234.527,45.779 232.986,53.979 232.849,54.886 L241.094,58.17" id="Fill-53" fill="#3A2D1E"></path>
            <path d="M258.025,137.386 C258.025,137.386 262.191,131.421 261.438,124.863 C261.069,121.624 259.568,118.298 256.889,117.119 C251.908,114.931 249.701,120.576 249.701,120.576 C249.701,120.576 256.71,122.306 258.025,137.386" id="Fill-54" fill="#3A2D1E"></path>
            <path d="M212.283,146.476 C212.109,146.801 212.02,146.983 212.02,146.983 C212.02,146.983 225.01,156.735 238.326,146.839 C245.459,141.537 244.785,128.421 242.598,122.86 C236.922,124.147 232.105,126.468 228.078,129.177 C233.167,124.636 237.621,121.293 237.605,121.215 L243.393,119.578 L254.632,115.726 C254.775,116.584 258.875,135.8 247.037,148.895 C241.793,154.7 217.203,167.702 205.531,145.47 L212.283,146.476" id="Fill-55" fill="#3A2D1E"></path>
            <path d="M213.496,147.905 C206.18,159.04 187.727,152.677 188.045,140.905 C188.045,140.905 200.375,147.711 211.271,135.179 C217.634,127.861 238.023,107.687 265.669,114.392 C246.578,118.59 221.301,136.033 213.496,147.905" id="Fill-56" fill="#3A2D1E"></path>
            <path d="M268.253,179.332 C266.492,180.348 260.282,186.776 260.282,196.39 C260.278,201.211 260.759,225.43 263.148,240.227 C259.559,242.559 257.059,243.055 253.484,245.432 C251.695,228.296 250.408,203.46 251.011,193.434 C251.693,182.004 257.811,174.334 263.484,171.064 C265.262,170.042 267.119,169.037 268.993,168.025 C278.713,162.773 288.764,157.34 288.764,148.064 C288.764,140.806 285.939,138.537 282.953,136.131 L282.635,135.87 C280.652,134.269 278.406,132.453 277.081,129.47 C273.454,121.317 272.859,100.549 277.077,95.277 C279.18,92.65 284.819,83.816 283.199,77.88 C282.578,75.614 281.15,73.936 278.828,72.745 C276.369,71.486 273.053,70.848 268.961,70.848 C260.936,70.848 252.025,73.292 247.434,74.748 C231.015,79.951 211.202,94.956 205.52,99.431 C205.357,99.555 205.264,99.629 205.245,99.641 L201.609,102.168 L203.883,98.365 C204.026,98.128 218.418,74.46 244.154,65.781 C249.162,64.093 258.998,61.261 268.666,61.261 C274.422,61.261 279.301,62.266 283.172,64.246 C287.886,66.657 291.076,70.504 292.404,75.367 C295.654,87.288 285.068,100.561 284.707,100.984 C283.473,103.188 282.951,119.19 285.798,125.595 C286.189,126.48 287.265,127.348 288.629,128.446 C289.055,128.791 289.528,129.148 290.037,129.532 C294.061,132.568 300.139,137.155 300.139,147.729 C300.139,162.196 285.477,170.04 273.697,176.347 C271.764,177.386 269.916,178.37 268.253,179.332" id="Fill-57" fill="#3A2D1E"></path>
            <path d="M250.763,66.413 C248.431,62.463 242.467,54.836 228.721,48.134 C213.381,40.657 195.627,36.862 175.944,36.853 L175.944,36.849 C175.944,36.849 175.917,36.849 175.906,36.849 C175.906,36.849 175.879,36.849 175.868,36.849 L175.868,36.851 C156.183,36.86 138.425,40.655 123.089,48.132 C109.344,54.835 103.381,62.461 101.047,66.411 L100.046,67.736 L111.817,70.356 L112.19,69.885 L112.387,69.453 C112.569,68.675 114.147,64.475 127.271,58.075 C141.301,51.232 157.665,47.763 175.904,47.757 C194.146,47.763 210.502,51.232 224.531,58.075 C237.656,64.475 239.239,68.675 239.419,69.453 L239.615,69.885 L239.984,70.356 L251.76,67.736 L250.763,66.413" id="Fill-58" fill="#3A2D1E"></path>
            <path d="M266.131,68.115 C272.434,62.887 267.74,58.034 268.238,52.092 C268.504,48.931 268.754,45.948 269.797,44.303 C275.598,35.144 289.28,32.365 289.421,32.336 L295.844,31.078 L291.592,26.105 C291.041,25.461 273.583,8.804 246.563,17.526 C227.668,23.622 213.678,44.29 213.157,45.125 L222.629,49.58 C222.744,49.404 233.805,29.978 250.018,24.75 C263.123,20.521 275.201,24.544 280.373,27.18 C274.876,29.376 267.682,33.376 263.349,40.216 C261.305,43.447 260.963,47.515 260.631,51.454 C260.191,56.669 259.776,61.592 255.938,64.78 L266.131,68.115" id="Fill-59" fill="#3A2D1E"></path>
            <path d="M254,65.145 L255.326,64.042 C258.856,61.113 259.252,56.385 259.678,51.357 C260.02,47.313 260.373,43.128 262.54,39.705 C266.522,33.421 272.826,29.483 278.02,27.142 C274.91,25.825 269.068,23.862 261.864,23.862 C257.886,23.862 254.002,24.464 250.309,25.656 C235.27,30.506 224.643,48.034 223.439,50.089 L222.988,50.803 L211.779,45.531 L212.35,44.621 C212.481,44.409 226.549,22.98 246.273,16.62 C251.549,14.916 256.85,14.055 262.029,14.055 C281.013,14.055 292.223,25.373 292.318,25.486 L297.636,31.702 L289.613,33.275 C289.48,33.302 276.135,36.094 270.607,44.816 C269.691,46.266 269.451,49.133 269.191,52.177 C269.04,53.987 269.421,55.751 269.79,57.456 C270.592,61.153 271.42,64.977 266.744,68.853 L266.338,69.19 L254,65.145" id="Fill-60" fill="#3A2D1E"></path>
            <path d="M241.094,58.17 C241.098,58.149 243.642,47.032 250.695,41.42 C260.644,33.506 272.792,37.716 272.905,37.753 L274.674,32.304 C274.084,32.113 260.201,27.738 247.4,36.733 C234.527,45.779 232.986,53.979 232.849,54.886 L241.094,58.17" id="Fill-61" fill="#3A2D1E"></path>
            <path d="M272.287,36.574 L273.462,32.955 C272.076,32.603 269.27,32.031 265.662,32.031 C259.088,32.031 253.129,33.877 247.953,37.515 C237.125,45.126 234.537,52.003 233.95,54.295 L240.447,56.883 C241.297,53.862 244.111,45.441 250.104,40.672 C254.238,37.386 259.409,35.648 265.062,35.648 C268.312,35.648 270.93,36.209 272.287,36.574 Z M231.797,55.493 L231.908,54.746 C232.048,53.799 233.66,45.227 246.854,35.952 C252.281,32.138 258.785,30.12 265.662,30.12 C270.878,30.12 274.563,31.267 274.971,31.398 L275.877,31.691 L273.512,38.96 L272.599,38.656 C272.258,38.541 269.189,37.555 265.062,37.555 C259.771,37.555 255.139,39.107 251.295,42.17 C244.549,47.534 242.052,58.27 242.029,58.376 L241.781,59.468 L231.797,55.493 L231.797,55.493 Z" id="Fill-62" fill="#3A2D1E"></path>
            <path d="M199.064,293.557 C194.147,288.3 191.238,282.643 190.535,280.904 C190.133,279.914 189.675,278.027 191.117,276.545 C192.241,275.397 194.189,274.808 196.913,274.808 L201.105,274.808 C205.475,274.808 210.583,274.808 213.621,274.811 L216.169,274.814 C219.748,274.814 221.511,275.839 222.36,276.696 C223.595,277.945 223.787,279.684 222.938,281.858 C220.66,287.67 215.495,292.413 213.969,293.729 C211.969,295.455 209.098,296.479 206.277,296.479 C203.387,296.48 200.825,295.441 199.064,293.557" id="Fill-63" fill="#3A2D1E"></path>
            <path d="M203.32,148.56 L213.496,147.905 C213.496,147.905 210.897,152.493 209.211,158.427 C207.307,165.139 210.952,174.948 210.952,174.948 C210.952,174.948 197.375,159.578 203.32,148.56" id="Fill-64" fill="#3A2D1E"></path>
            <path d="M175.908,112.209 C169.419,112.209 160.958,112.031 154.609,107.469 C154.609,107.469 162.921,122.041 175.896,122.041 L175.908,120.197 L175.919,122.041 C188.895,122.041 197.206,107.469 197.206,107.469 C190.857,112.031 182.391,112.209 175.908,112.209" id="Fill-65" fill="#DA7F2E"></path>
            <path d="M193.774,112.139 C187.266,116.078 181.452,117.443 175.908,117.564 C170.362,117.443 164.551,116.078 158.041,112.139 C158.041,112.139 167.521,123.706 175.86,123.795 L175.86,123.803 C175.875,123.803 175.891,123.799 175.908,123.799 C175.923,123.799 175.938,123.803 175.955,123.803 L175.955,123.795 C184.291,123.706 193.774,112.139 193.774,112.139" id="Fill-66" fill="#3A2D1E"></path>
            <path d="M216.029,323.365 L215.304,313.931 C245.869,311.58 255.5,282.288 255.55,279.205 L265.014,279.205 C265.018,286.335 252.264,320.58 216.029,323.365" id="Fill-67" fill="#3A2D1E"></path>
            <path d="M226.211,262.014 C226.78,258.74 226.835,255.637 226.145,252.587 C228.902,250.517 233.841,249.748 237.549,248.546 C240.581,246.627 256.101,250.513 267.357,236.89 C281.461,219.831 278.489,209.646 278.489,209.646 C282.108,213.664 285.61,212.133 291.126,230.867 C296.646,249.605 288.531,262.668 273.414,275.782 C266.273,281.978 256.176,284.529 247.492,285.506 C250.401,282.585 242.523,282.293 237.096,280.261 C237.529,275.877 236.801,271.621 233.532,268.193 C231.565,266.127 229.025,264.893 226.396,263.908 C226.248,263.568 226.121,263.254 225.985,262.928 C226.074,262.631 226.156,262.33 226.211,262.014" id="Fill-68" fill="#FFFFFE"></path>
            <path d="M237.164,280.147 C237.482,279.228 237.715,278.289 237.948,277.346 C238.203,276.314 239.453,273.394 237.91,276.729 C238.306,275.875 238.565,274.994 238.756,274.107 C263.238,274.076 284.537,257.268 280.418,221.929 C283.623,217.674 288.114,230.509 288.114,230.509 C288.114,230.509 300.371,266.097 268.717,279.89 C258.17,284.489 248.85,287.787 246.649,286.456 C242.064,287.387 237.93,284.193 236.383,282.093 C236.672,281.447 236.943,280.801 237.164,280.147" id="Fill-69" fill="#C3C3BE"></path>
            <path d="M226.649,256.89 C226.615,253.906 226.002,251.018 224.564,248.139 C224.463,247.94 224.346,247.751 224.238,247.558 C233.658,247.477 244.509,246.574 253.748,242.877 C263.902,238.814 276.605,224.918 278.789,208.59 C278.789,208.59 297.914,223.348 292.294,254.936 C287.015,284.598 262.197,294.268 233.89,295.903 C233.875,295.711 237.074,289.104 236.063,285.059 C252.133,286.227 270.107,280.017 278.789,265.738 C286.729,252.67 284.501,230.359 281.236,227.09 C273.276,252.22 244.617,257.328 226.649,256.89" id="Fill-70" fill="#3A2D1E"></path>
            <path d="M231.444,284.578 C227.127,296.944 215.525,326.876 175.906,326.928 C136.281,326.876 124.683,296.944 120.366,284.578 C117.977,277.717 118.159,272.641 120.924,269.486 C122.813,267.33 127.153,264.758 137.044,264.758 L147.377,264.754 C155,264.747 164.571,264.739 175.906,264.735 C187.236,264.739 196.813,264.747 204.434,264.754 L214.763,264.758 C224.656,264.758 228.996,267.33 230.886,269.486 C233.649,272.643 233.833,277.717 231.444,284.578 Z M238.08,264.33 C234.698,260.674 228.48,256.316 214.144,256.316 C214.144,256.316 186.962,256.301 175.955,256.293 C175.94,256.293 175.921,256.293 175.908,256.293 C175.908,256.293 175.874,256.293 175.86,256.293 C164.855,256.301 137.667,256.316 137.667,256.316 C123.333,256.316 117.116,260.676 113.731,264.33 C108.802,269.651 108.03,277.053 111.439,286.305 C120.5,310.931 133.233,335.949 175.858,335.984 L175.858,335.988 C175.874,335.988 175.889,335.984 175.906,335.984 C175.921,335.984 175.936,335.988 175.953,335.988 L175.953,335.984 C218.574,335.947 231.307,310.931 240.371,286.305 C243.781,277.053 243.006,269.651 238.08,264.33 L238.08,264.33 Z" id="Fill-71" fill="#3A2D1E"></path>
            <g id="Group-77" transform="translate(0.000000, 198.000000)">
                <mask id="mask-2" fill="white">
                    <use xlink:href="#path-1"></use>
                </mask>
                <g id="Clip-73"></g>
                <path d="M223.686,40.9 C228.779,55.85 239.184,67.947 239.184,67.947 C239.184,67.947 224.872,67.296 224.081,64.764 C223.5,62.897 211.16,34.012 206.424,0.175 C210.875,7.493 223.248,39.62 223.686,40.9" id="Fill-72" fill="#3A2D1E" mask="url(#mask-2)"></path>
                <path d="M62.051,160.736 C60.144,159.586 58.009,158.577 55.702,157.74 C53.412,156.909 50.879,156.247 48.172,155.772 C45.461,155.293 42.535,155.053 39.473,155.053 C33.539,155.053 28.078,155.94 23.243,157.691 C18.394,159.453 14.195,161.957 10.766,165.136 C7.322,168.319 4.64,172.16 2.793,176.553 C0.949,180.93 0.016,185.789 0.016,191.006 C0.016,196.133 0.995,200.956 2.925,205.338 C4.854,209.718 7.557,213.555 10.955,216.748 C14.347,219.938 18.411,222.473 23.044,224.28 C27.667,226.082 32.761,227 38.186,227 C41.165,227 43.989,226.86 46.582,226.576 C49.185,226.294 51.682,225.842 54.006,225.236 C56.327,224.632 58.549,223.849 60.612,222.9 C62.673,221.957 64.682,220.813 66.578,219.506 C66.925,219.27 67.129,218.878 67.129,218.459 L67.129,189.792 C67.129,189.092 66.561,188.522 65.859,188.522 L40.167,188.522 C39.465,188.522 38.895,189.092 38.895,189.792 L38.895,201.263 C38.895,201.967 39.465,202.535 40.167,202.535 L49.41,202.535 L49.41,210.678 C48.128,211.134 46.771,211.513 45.359,211.806 C43.671,212.16 41.691,212.34 39.473,212.34 C36.607,212.34 33.932,211.857 31.53,210.911 C29.147,209.974 27.061,208.59 25.335,206.805 C23.597,205.013 22.211,202.777 21.222,200.155 C20.222,197.516 19.715,194.438 19.715,191.004 C19.715,187.904 20.175,185.063 21.078,182.558 C21.975,180.072 23.264,177.918 24.903,176.162 C26.537,174.41 28.551,173.031 30.883,172.065 C33.228,171.091 35.918,170.603 38.88,170.603 C40.514,170.603 41.999,170.676 43.294,170.824 C44.581,170.971 45.817,171.214 46.966,171.531 C48.121,171.857 49.266,172.279 50.37,172.789 C51.528,173.326 56.923,176.398 58.174,177.101 C59.03,177.58 59.556,177.609 60.127,176.801 L67.396,166.188 C67.765,165.666 67.684,164.941 67.203,164.514 C65.69,163.16 63.956,161.892 62.051,160.736" id="Fill-74" fill="#3A2D1E" mask="url(#mask-2)"></path>
                <path d="M115.344,182.113 C114.946,183.223 114.322,184.164 113.442,184.996 C112.548,185.83 111.378,186.498 109.959,186.978 C108.496,187.475 106.673,187.727 104.54,187.727 L99.063,187.727 L99.063,170.133 L104.54,170.133 C108.549,170.133 111.507,170.887 113.334,172.368 C115.104,173.807 115.963,175.77 115.963,178.373 C115.965,179.713 115.755,180.969 115.344,182.113 Z M125.836,200.659 C125.043,199.435 124.091,198.376 123.008,197.514 C122.666,197.24 122.317,196.982 121.958,196.738 C123.44,196.056 124.806,195.257 126.039,194.365 C127.937,192.989 129.565,191.402 130.875,189.643 C132.194,187.873 133.201,185.922 133.869,183.843 C134.536,181.765 134.873,179.539 134.873,177.209 C134.873,174.159 134.303,171.293 133.18,168.687 C132.039,166.043 130.197,163.724 127.708,161.797 C125.253,159.902 122.067,158.41 118.24,157.357 C114.46,156.324 109.851,155.803 104.54,155.803 L81.03,155.803 C80.328,155.803 79.76,156.371 79.76,157.072 L79.76,224.984 C79.76,225.683 80.328,226.254 81.03,226.254 L97.793,226.254 C98.496,226.254 99.063,225.683 99.063,224.984 L99.063,201.127 L102.058,201.127 C103.395,201.127 104.108,201.355 104.468,201.545 C104.969,201.808 105.425,202.279 105.833,202.941 L117.837,222.665 C119.3,225.049 121.702,226.254 124.969,226.254 L140.146,226.254 C140.163,226.256 140.18,226.254 140.188,226.254 C140.892,226.254 141.46,225.683 141.46,224.984 C141.46,224.619 141.307,224.289 141.061,224.059 L125.836,200.659 L125.836,200.659 Z" id="Fill-75" fill="#3A2D1E" mask="url(#mask-2)"></path>
                <path d="M210.074,155.802 L193.313,155.802 C192.608,155.802 192.043,156.371 192.043,157.072 L192.043,197.295 C192.043,199.536 191.738,201.553 191.142,203.294 C190.557,204.992 189.707,206.445 188.615,207.615 C187.526,208.773 186.171,209.681 184.585,210.307 C181.361,211.579 176.691,211.579 173.466,210.307 C171.884,209.681 170.532,208.77 169.444,207.595 C168.35,206.411 167.498,204.95 166.913,203.244 C166.319,201.513 166.014,199.493 166.014,197.248 L166.014,157.07 C166.014,156.37 165.446,155.801 164.744,155.801 L147.98,155.801 C147.278,155.801 146.71,156.37 146.71,157.07 L146.71,197.293 C146.71,201.607 147.46,205.628 148.937,209.241 C150.42,212.877 152.592,216.056 155.391,218.685 C158.181,221.307 161.617,223.375 165.596,224.825 C169.55,226.266 174.066,226.996 179.025,226.996 C183.949,226.996 188.449,226.264 192.408,224.825 C196.387,223.373 199.816,221.307 202.61,218.685 C205.41,216.054 207.589,212.881 209.09,209.249 C210.585,205.628 211.342,201.605 211.342,197.295 L211.342,157.072 C211.344,156.371 210.777,155.802 210.074,155.802" id="Fill-76" fill="#3A2D1E" mask="url(#mask-2)"></path>
            </g>
            <path d="M289.025,353.802 L274.244,353.802 C273.543,353.802 272.976,354.371 272.976,355.072 L272.976,391.008 C272.976,392.083 273.006,393.225 273.068,394.436 L241.275,356.654 C240.763,356.073 240.309,355.611 239.909,355.27 C239.443,354.873 238.949,354.564 238.447,354.35 C237.944,354.131 237.379,353.984 236.76,353.906 C236.224,353.838 235.556,353.805 234.768,353.805 L225.938,353.805 C225.239,353.805 224.67,354.373 224.67,355.074 L224.67,422.986 C224.67,423.685 225.239,424.256 225.938,424.256 L240.719,424.256 C241.42,424.256 241.993,423.685 241.993,422.986 L241.993,386.586 C241.993,385.682 241.965,384.731 241.91,383.717 L273.464,421.188 C274.42,422.335 275.451,423.148 276.532,423.602 C277.577,424.035 278.846,424.256 280.295,424.256 L289.023,424.256 C289.722,424.256 290.291,423.685 290.291,422.986 L290.291,355.074 C290.293,354.371 289.726,353.802 289.025,353.802" id="Fill-78" fill="#3A2D1E"></path>
            <path d="M358.354,353.802 L300.924,353.802 C300.223,353.802 299.651,354.371 299.651,355.072 L299.651,367.563 C299.651,368.264 300.223,368.835 300.924,368.835 L319.988,368.835 L319.988,422.984 C319.988,423.683 320.559,424.254 321.261,424.254 L338.02,424.254 C338.722,424.254 339.292,423.683 339.292,422.984 L339.292,368.835 L358.353,368.835 C359.053,368.835 359.623,368.264 359.623,367.563 L359.623,355.072 C359.625,354.371 359.055,353.802 358.354,353.802" id="Fill-79" fill="#3A2D1E"></path>
        </g>
    </g>
</svg>