<?xml version="1.0" encoding="UTF-8"?>
<svg width="250px" height="335px" viewBox="0 0 250 335" version="1.1" xmlns="http://www.w3.org/2000/svg" xmlns:xlink="http://www.w3.org/1999/xlink">
    <!-- Generator: Sketch 46.2 (44496) - http://www.bohemiancoding.com/sketch -->
    <title>grunt-logo</title>
    <desc>Created with Sketch.</desc>
    <defs></defs>
    <g id="Page-1" stroke="none" stroke-width="1" fill="none" fill-rule="evenodd">
        <g id="grunt-logo" transform="translate(0.000000, -1.000000)" fill-rule="nonzero">
            <path d="M28.523,36.574 L26.867,35.525 C21.984,35.691 28.523,36.574 28.523,36.574" id="Fill-13" fill="#212121"></path>
            <path d="M90.681,41.526 C89.85,24.07 104.16,10.167 109.118,9.575 C109.392,12.533 108.841,24.07 113.799,27.619 C115.243,18.195 120.123,7.805 139.393,0.998 C135.266,11.944 138.842,21.113 140.545,25.363 C153.704,13.419 162.57,15.393 162.57,15.393 C162.57,15.393 153.428,31.17 157.003,41.523 C130.586,39.451 90.81,44.329 90.681,41.526" id="Fill-17" fill="#212121"></path>
            <path d="M34.679,68.115 C28.376,62.887 33.074,58.034 32.576,52.092 C32.306,48.931 32.056,45.948 31.013,44.303 C25.213,35.144 11.529,32.365 11.393,32.336 L4.971,31.078 L9.222,26.105 C9.773,25.461 27.231,8.804 54.248,17.526 C73.146,23.622 87.136,44.29 87.656,45.125 L78.181,49.58 C78.069,49.404 67.009,29.978 50.797,24.75 C37.69,20.521 25.612,24.544 20.437,27.18 C25.938,29.376 33.129,33.376 37.461,40.216 C39.506,43.447 39.851,47.515 40.184,51.454 C40.623,56.669 41.034,61.592 44.872,64.78 L34.679,68.115" id="Fill-18" fill="#212121"></path>
            <path d="M17.846,144.448 C17.846,144.448 25.787,134.602 28.139,115.44 C29.063,107.894 27.422,93.008 24.796,87.28 C25.273,101.359 21.694,115.44 21.694,115.44 C21.694,115.44 19.281,141.584 17.846,144.448" id="Fill-19" fill="#212121"></path>
            <path d="M59.718,58.17 C59.714,58.149 57.17,47.032 50.117,41.42 C40.168,33.506 28.02,37.716 27.903,37.753 L26.139,32.304 C26.727,32.113 40.611,27.738 53.407,36.733 C66.28,45.779 67.825,53.979 67.959,54.886 L59.718,58.17" id="Fill-20" fill="#212121"></path>
            <path d="M42.786,137.386 C42.786,137.386 38.62,131.421 39.37,124.863 C39.743,121.624 41.244,118.298 43.924,117.119 C48.904,114.931 51.111,120.576 51.111,120.576 C51.111,120.576 44.102,122.306 42.786,137.386" id="Fill-21" fill="#212121"></path>
            <path d="M88.529,146.476 C88.703,146.801 88.792,146.983 88.792,146.983 C88.792,146.983 75.798,156.735 62.481,146.839 C55.353,141.537 56.027,128.421 58.211,122.86 C63.89,124.147 68.707,126.468 72.733,129.177 C67.645,124.636 63.191,121.293 63.203,121.215 L57.42,119.578 L46.18,115.724 C46.036,116.582 41.936,135.798 53.771,148.893 C59.016,154.698 83.605,167.7 95.281,145.469 L88.529,146.476" id="Fill-22" fill="#212121"></path>
            <path d="M87.312,147.905 C94.628,159.04 113.087,152.677 112.769,140.905 C112.769,140.905 100.435,147.711 89.538,135.179 C83.176,127.861 62.79,107.687 35.144,114.392 C54.236,118.59 79.511,136.033 87.312,147.905" id="Fill-23" fill="#212121"></path>
            <path d="M32.561,179.332 C34.321,180.348 40.528,186.776 40.532,196.39 C40.532,201.211 40.051,225.43 37.666,240.227 C41.255,242.559 43.755,243.055 47.329,245.432 C49.118,228.296 50.401,203.46 49.803,193.434 C49.12,182.004 43,174.334 37.325,171.064 C35.548,170.042 33.691,169.037 31.821,168.025 C22.101,162.773 12.05,157.34 12.05,148.064 C12.05,140.806 14.871,138.537 17.857,136.131 L18.179,135.87 C20.161,134.269 22.404,132.453 23.733,129.47 C27.359,121.317 27.952,100.549 23.733,95.277 C21.63,92.65 15.995,83.816 17.615,77.88 C18.232,75.614 19.659,73.936 21.982,72.745 C24.44,71.486 27.761,70.848 31.849,70.848 C39.879,70.848 48.785,73.292 53.38,74.748 C69.799,79.951 89.612,94.956 95.291,99.431 C95.453,99.555 95.55,99.629 95.567,99.641 L99.201,102.168 L96.928,98.365 C96.788,98.128 82.394,74.46 56.657,65.781 C51.65,64.093 41.813,61.261 32.146,61.261 C26.39,61.261 21.507,62.266 17.64,64.246 C12.926,66.657 9.735,70.504 8.408,75.367 C5.158,87.288 15.743,100.561 16.104,100.984 C17.339,103.188 17.861,119.19 15.01,125.595 C14.619,126.48 13.543,127.348 12.183,128.446 C11.757,128.791 11.28,129.148 10.774,129.532 C6.752,132.568 0.67,137.155 0.67,147.729 C0.67,162.196 15.332,170.04 27.115,176.347 C29.048,177.386 30.894,178.37 32.561,179.332" id="Fill-24" fill="#212121"></path>
            <path d="M34.679,68.115 C28.376,62.887 33.074,58.034 32.576,52.092 C32.306,48.931 32.056,45.948 31.013,44.303 C25.213,35.144 11.529,32.365 11.393,32.336 L4.971,31.078 L9.222,26.105 C9.773,25.461 27.231,8.804 54.248,17.526 C73.146,23.622 87.136,44.29 87.656,45.125 L78.181,49.58 C78.069,49.404 67.009,29.978 50.797,24.75 C37.69,20.521 25.612,24.544 20.437,27.18 C25.938,29.376 33.129,33.376 37.461,40.216 C39.506,43.447 39.851,47.515 40.184,51.454 C40.623,56.669 41.034,61.592 44.872,64.78 L34.679,68.115" id="Fill-25" fill="#212121"></path>
            <path d="M34.475,69.187 L34.068,68.85 C29.394,64.971 30.223,61.149 31.026,57.453 C31.391,55.747 31.775,53.983 31.62,52.173 C31.365,49.131 31.121,46.262 30.205,44.812 C24.681,36.092 11.334,33.298 11.202,33.272 L3.18,31.698 L8.497,25.482 C8.594,25.367 19.803,14.051 38.787,14.051 C43.962,14.051 49.264,14.913 54.539,16.616 C74.263,22.976 88.334,44.405 88.467,44.617 L89.036,45.527 L77.827,50.799 L77.376,50.086 C76.17,48.03 65.542,30.502 50.507,25.652 C46.814,24.46 42.924,23.858 38.948,23.858 C31.745,23.858 25.904,25.821 22.796,27.139 C27.99,29.478 34.289,33.415 38.275,39.701 C40.443,43.126 40.793,47.311 41.138,51.354 C41.56,56.381 41.959,61.109 45.485,64.038 L46.816,65.141 L34.475,69.187" id="Fill-26" fill="#212121"></path>
            <path d="M59.718,58.17 C59.714,58.149 57.17,47.032 50.117,41.42 C40.168,33.506 28.02,37.716 27.903,37.753 L26.139,32.304 C26.727,32.113 40.611,27.738 53.407,36.733 C66.28,45.779 67.825,53.979 67.959,54.886 L59.718,58.17" id="Fill-27" fill="#212121"></path>
            <path d="M35.75,35.648 C41.402,35.648 46.58,37.386 50.711,40.672 C56.701,45.442 59.517,53.864 60.369,56.883 L66.861,54.295 C66.273,52.003 63.685,45.125 52.862,37.515 C47.683,33.875 41.726,32.031 35.15,32.031 C31.542,32.031 28.739,32.605 27.354,32.955 L28.525,36.574 C29.883,36.209 32.497,35.648 35.75,35.648 Z M59.035,59.47 L58.787,58.376 C58.76,58.269 56.265,47.532 49.521,42.17 C45.677,39.109 41.041,37.555 35.75,37.555 C31.62,37.555 28.552,38.541 28.217,38.656 L27.305,38.96 L24.938,31.691 L25.845,31.398 C26.252,31.269 29.937,30.12 35.15,30.12 C42.027,30.12 48.529,32.138 53.961,35.952 C67.157,45.225 68.768,53.799 68.906,54.746 L69.021,55.493 L59.035,59.47 L59.035,59.47 Z" id="Fill-28" fill="#212121"></path>
            <path d="M94.537,296.48 L94.537,296.48 C91.717,296.48 88.839,295.457 86.844,293.73 C85.317,292.414 80.153,287.672 77.876,281.86 C77.026,279.688 77.217,277.949 78.45,276.698 C79.299,275.841 81.063,274.816 84.645,274.816 L87.193,274.813 C90.229,274.81 95.341,274.81 99.71,274.81 L103.899,274.81 C106.623,274.81 108.576,275.398 109.699,276.547 C111.141,278.029 110.679,279.914 110.276,280.906 C109.574,282.645 106.668,288.3 101.75,293.559 C99.99,295.441 97.427,296.48 94.537,296.48" id="Fill-29" fill="#212121"></path>
            <path d="M97.494,148.56 L87.312,147.905 C87.312,147.905 89.915,152.493 91.601,158.427 C93.505,165.139 89.86,174.948 89.86,174.948 C89.86,174.948 103.435,159.578 97.494,148.56" id="Fill-30" fill="#212121"></path>
            <path d="M84.783,323.365 C48.544,320.58 35.794,286.337 35.794,279.205 L45.258,279.209 L40.526,279.205 L45.258,279.205 C45.306,282.288 54.937,311.58 85.508,313.931 L84.783,323.365" id="Fill-31" fill="#212121"></path>
            <path d="M74.6,262.014 C74.034,258.74 73.975,255.637 74.666,252.587 C71.912,250.517 66.969,249.748 63.261,248.546 C60.229,246.627 44.713,250.513 33.456,236.89 C19.352,219.831 22.321,209.646 22.321,209.646 C18.705,213.664 15.2,212.133 9.687,230.867 C4.168,249.605 12.279,262.668 27.396,275.782 C34.537,281.978 44.634,284.529 53.318,285.506 C50.409,282.585 58.287,282.293 63.717,280.261 C63.284,275.877 64.009,271.621 67.278,268.193 C69.249,266.127 71.785,264.893 74.416,263.908 C74.563,263.568 74.687,263.254 74.827,262.928 C74.74,262.631 74.654,262.33 74.6,262.014" id="Fill-32" fill="#212121"></path>
            <path d="M63.644,280.147 C63.33,279.228 63.093,278.289 62.86,277.346 C62.608,276.314 61.359,273.394 62.9,276.729 C62.504,275.875 62.245,274.994 62.054,274.107 C37.571,274.076 16.273,257.268 20.388,221.929 C17.184,217.674 12.695,230.509 12.695,230.509 C12.695,230.509 0.439,266.097 32.093,279.89 C42.641,284.489 51.961,287.787 54.161,286.456 C58.741,287.387 62.877,284.193 64.427,282.093 C64.136,281.447 63.871,280.801 63.644,280.147" id="Fill-33" fill="#FFFFFF"></path>
            <path d="M74.159,256.89 C74.196,253.906 74.806,251.018 76.248,248.139 C76.349,247.94 76.466,247.751 76.574,247.558 C67.153,247.477 56.303,246.574 47.064,242.877 C36.909,238.814 24.206,224.918 22.023,208.59 C22.023,208.59 2.898,223.348 8.518,254.936 C13.793,284.598 38.614,294.268 66.922,295.903 C66.937,295.711 63.738,289.104 64.749,285.059 C48.675,286.227 30.7,280.017 22.023,265.738 C14.079,252.67 16.307,230.359 19.572,227.09 C27.536,252.22 56.191,257.328 74.159,256.89" id="Fill-34" fill="#212121"></path>
            <path d="M77.125,238.9 C72.031,253.85 61.626,265.947 61.626,265.947 C61.626,265.947 75.939,265.296 76.729,262.764 C77.314,260.897 89.653,232.012 94.389,198.175 C89.934,205.493 77.56,237.62 77.125,238.9" id="Fill-35" fill="#212121"></path>
            <path d="M158.215,204.435 C158.215,204.435 174.439,229.25 186.348,246.859 C188.189,249.583 174.439,249.772 174.439,249.772 L158.215,204.435" id="Fill-36" fill="#212121"></path>
            <path d="M221.287,36.574 L222.946,35.525 C227.83,35.691 221.287,36.574 221.287,36.574" id="Fill-47" fill="#212121"></path>
            <path d="M215.131,68.115 C221.434,62.887 216.74,58.034 217.238,52.092 C217.504,48.931 217.754,45.948 218.797,44.303 C224.598,35.144 238.28,32.365 238.421,32.336 L244.844,31.078 L240.592,26.105 C240.041,25.461 222.583,8.804 195.563,17.526 C176.668,23.622 162.678,44.29 162.157,45.125 L171.629,49.58 C171.744,49.404 182.805,29.978 199.018,24.75 C212.123,20.521 224.201,24.544 229.373,27.18 C223.876,29.376 216.682,33.376 212.349,40.216 C210.305,43.447 209.963,47.515 209.631,51.454 C209.191,56.669 208.776,61.592 204.938,64.78 L215.131,68.115" id="Fill-51" fill="#212121"></path>
            <path d="M231.962,144.448 C231.962,144.448 224.025,134.602 221.673,115.44 C220.749,107.894 222.387,93.008 225.012,87.28 C224.535,101.359 228.117,115.44 228.117,115.44 C228.117,115.44 230.531,141.584 231.962,144.448" id="Fill-52" fill="#212121"></path>
            <path d="M190.094,58.17 C190.098,58.149 192.642,47.032 199.695,41.42 C209.644,33.506 221.792,37.716 221.905,37.753 L223.674,32.304 C223.084,32.113 209.201,27.738 196.4,36.733 C183.527,45.779 181.986,53.979 181.849,54.886 L190.094,58.17" id="Fill-53" fill="#212121"></path>
            <path d="M207.025,137.386 C207.025,137.386 211.191,131.421 210.438,124.863 C210.069,121.624 208.568,118.298 205.889,117.119 C200.908,114.931 198.701,120.576 198.701,120.576 C198.701,120.576 205.71,122.306 207.025,137.386" id="Fill-54" fill="#212121"></path>
            <path d="M161.283,146.476 C161.109,146.801 161.02,146.983 161.02,146.983 C161.02,146.983 174.01,156.735 187.326,146.839 C194.459,141.537 193.785,128.421 191.598,122.86 C185.922,124.147 181.105,126.468 177.078,129.177 C182.167,124.636 186.621,121.293 186.605,121.215 L192.393,119.578 L203.632,115.726 C203.775,116.584 207.875,135.8 196.037,148.895 C190.793,154.7 166.203,167.702 154.531,145.47 L161.283,146.476" id="Fill-55" fill="#212121"></path>
            <path d="M162.496,147.905 C155.18,159.04 136.727,152.677 137.045,140.905 C137.045,140.905 149.375,147.711 160.271,135.179 C166.634,127.861 187.023,107.687 214.669,114.392 C195.578,118.59 170.301,136.033 162.496,147.905" id="Fill-56" fill="#212121"></path>
            <path d="M209.282,196.39 C209.278,201.211 209.759,225.43 212.148,240.227 C208.559,242.559 206.059,243.055 202.484,245.432 C200.695,228.296 199.408,203.46 200.011,193.434 C200.693,182.004 206.811,174.334 212.484,171.064 C214.262,170.042 216.119,169.037 217.993,168.025 C227.713,162.773 237.764,157.34 237.764,148.064 C237.764,140.806 234.939,138.537 231.953,136.131 L231.635,135.87 C229.652,134.269 227.406,132.453 226.081,129.47 C222.454,121.317 221.859,100.549 226.077,95.277 C228.18,92.65 233.819,83.816 232.199,77.88 C231.578,75.614 230.15,73.936 227.828,72.745 C225.369,71.486 222.053,70.848 217.961,70.848 C209.936,70.848 201.025,73.292 196.434,74.748 C180.015,79.951 160.202,94.956 154.52,99.431 C154.357,99.555 154.264,99.629 154.245,99.641 L150.609,102.168 L152.883,98.365 C153.026,98.128 167.418,74.46 193.154,65.781 C198.162,64.093 207.998,61.261 217.666,61.261 C223.422,61.261 228.301,62.266 232.172,64.246 C236.886,66.657 240.076,70.504 241.404,75.367 C244.654,87.288 234.068,100.561 233.707,100.984 C232.473,103.188 231.951,119.19 234.798,125.595 C235.189,126.48 236.265,127.348 237.629,128.446 C238.055,128.791 238.528,129.148 239.037,129.532 C243.061,132.568 249.139,137.155 249.139,147.729 C249.139,162.196 234.477,170.04 222.697,176.347 C220.764,177.386 218.916,178.37 217.253,179.332 C215.492,180.348 209.282,186.776 209.282,196.39 Z" id="Fill-57" fill="#212121"></path>
            <path d="M199.763,66.413 C197.431,62.463 191.467,54.836 177.721,48.134 C162.381,40.657 144.627,36.862 124.944,36.853 L124.944,36.849 C124.944,36.849 124.917,36.849 124.906,36.849 C124.906,36.849 124.879,36.849 124.868,36.849 L124.868,36.851 C105.183,36.86 87.425,40.655 72.089,48.132 C58.344,54.835 52.381,62.461 50.047,66.411 L49.046,67.736 L60.817,70.356 L61.19,69.885 L61.387,69.453 C61.569,68.675 63.147,64.475 76.271,58.075 C90.301,51.232 106.665,47.763 124.904,47.757 C143.146,47.763 159.502,51.232 173.531,58.075 C186.656,64.475 188.239,68.675 188.419,69.453 L188.615,69.885 L188.984,70.356 L200.76,67.736 L199.763,66.413" id="Fill-58" fill="#212121"></path>
            <path d="M215.131,68.115 C221.434,62.887 216.74,58.034 217.238,52.092 C217.504,48.931 217.754,45.948 218.797,44.303 C224.598,35.144 238.28,32.365 238.421,32.336 L244.844,31.078 L240.592,26.105 C240.041,25.461 222.583,8.804 195.563,17.526 C176.668,23.622 162.678,44.29 162.157,45.125 L171.629,49.58 C171.744,49.404 182.805,29.978 199.018,24.75 C212.123,20.521 224.201,24.544 229.373,27.18 C223.876,29.376 216.682,33.376 212.349,40.216 C210.305,43.447 209.963,47.515 209.631,51.454 C209.191,56.669 208.776,61.592 204.938,64.78 L215.131,68.115" id="Fill-59" fill="#212121"></path>
            <path d="M203,65.145 L204.326,64.042 C207.856,61.113 208.252,56.385 208.678,51.357 C209.02,47.313 209.373,43.128 211.54,39.705 C215.522,33.421 221.826,29.483 227.02,27.142 C223.91,25.825 218.068,23.862 210.864,23.862 C206.886,23.862 203.002,24.464 199.309,25.656 C184.27,30.506 173.643,48.034 172.439,50.089 L171.988,50.803 L160.779,45.531 L161.35,44.621 C161.481,44.409 175.549,22.98 195.273,16.62 C200.549,14.916 205.85,14.055 211.029,14.055 C230.013,14.055 241.223,25.373 241.318,25.486 L246.636,31.702 L238.613,33.275 C238.48,33.302 225.135,36.094 219.607,44.816 C218.691,46.266 218.451,49.133 218.191,52.177 C218.04,53.987 218.421,55.751 218.79,57.456 C219.592,61.153 220.42,64.977 215.744,68.853 L215.338,69.19 L203,65.145" id="Fill-60" fill="#212121"></path>
            <path d="M190.094,58.17 C190.098,58.149 192.642,47.032 199.695,41.42 C209.644,33.506 221.792,37.716 221.905,37.753 L223.674,32.304 C223.084,32.113 209.201,27.738 196.4,36.733 C183.527,45.779 181.986,53.979 181.849,54.886 L190.094,58.17" id="Fill-61" fill="#212121"></path>
            <path d="M221.287,36.574 L222.462,32.955 C221.076,32.603 218.27,32.031 214.662,32.031 C208.088,32.031 202.129,33.877 196.953,37.515 C186.125,45.126 183.537,52.003 182.95,54.295 L189.447,56.883 C190.297,53.862 193.111,45.441 199.104,40.672 C203.238,37.386 208.409,35.648 214.062,35.648 C217.312,35.648 219.93,36.209 221.287,36.574 Z M180.797,55.493 L180.908,54.746 C181.048,53.799 182.66,45.227 195.854,35.952 C201.281,32.138 207.785,30.12 214.662,30.12 C219.878,30.12 223.563,31.267 223.971,31.398 L224.877,31.691 L222.512,38.96 L221.599,38.656 C221.258,38.541 218.189,37.555 214.062,37.555 C208.771,37.555 204.139,39.107 200.295,42.17 C193.549,47.534 191.052,58.27 191.029,58.376 L190.781,59.468 L180.797,55.493 L180.797,55.493 Z" id="Fill-62" fill="#212121"></path>
            <path d="M148.064,293.557 C143.147,288.3 140.238,282.643 139.535,280.904 C139.133,279.914 138.675,278.027 140.117,276.545 C141.241,275.397 143.189,274.808 145.913,274.808 L150.105,274.808 C154.475,274.808 159.583,274.808 162.621,274.811 L165.169,274.814 C168.748,274.814 170.511,275.839 171.36,276.696 C172.595,277.945 172.787,279.684 171.938,281.858 C169.66,287.67 164.495,292.413 162.969,293.729 C160.969,295.455 158.098,296.479 155.277,296.479 C152.387,296.48 149.825,295.441 148.064,293.557" id="Fill-63" fill="#212121"></path>
            <path d="M152.32,148.56 L162.496,147.905 C162.496,147.905 159.897,152.493 158.211,158.427 C156.307,165.139 159.952,174.948 159.952,174.948 C159.952,174.948 146.375,159.578 152.32,148.56" id="Fill-64" fill="#212121"></path>
            <path d="M142.774,112.139 C136.266,116.078 130.452,117.443 124.908,117.564 C119.362,117.443 113.551,116.078 107.041,112.139 C107.041,112.139 116.521,123.706 124.86,123.795 L124.86,123.803 C124.875,123.803 124.891,123.799 124.908,123.799 C124.923,123.799 124.938,123.803 124.955,123.803 L124.955,123.795 C133.291,123.706 142.774,112.139 142.774,112.139" id="Fill-66" fill="#212121"></path>
            <path d="M164.304,313.931 C194.869,311.58 204.5,282.288 204.55,279.205 L214.014,279.205 C214.018,286.335 201.264,320.58 165.029,323.365 L164.304,313.931 Z" id="Fill-67" fill="#212121"></path>
            <path d="M175.145,252.587 C177.902,250.517 182.841,249.748 186.549,248.546 C189.581,246.627 205.101,250.513 216.357,236.89 C230.461,219.831 227.489,209.646 227.489,209.646 C231.108,213.664 234.61,212.133 240.126,230.867 C245.646,249.605 237.531,262.668 222.414,275.782 C215.273,281.978 205.176,284.529 196.492,285.506 C199.401,282.585 191.523,282.293 186.096,280.261 C186.529,275.877 185.801,271.621 182.532,268.193 C180.565,266.127 178.025,264.893 175.396,263.908 C175.248,263.568 175.121,263.254 174.985,262.928 C175.074,262.631 175.156,262.33 175.211,262.014 C175.78,258.74 175.835,255.637 175.145,252.587 Z" id="Fill-68" fill="#212121"></path>
            <path d="M186.948,277.346 C187.203,276.314 188.453,273.394 186.91,276.729 C187.306,275.875 187.565,274.994 187.756,274.107 C212.238,274.076 233.537,257.268 229.418,221.929 C232.623,217.674 237.114,230.509 237.114,230.509 C237.114,230.509 249.371,266.097 217.717,279.89 C207.17,284.489 197.85,287.787 195.649,286.456 C191.064,287.387 186.93,284.193 185.383,282.093 C185.672,281.447 185.943,280.801 186.164,280.147 C186.482,279.228 186.715,278.289 186.948,277.346 Z" id="Fill-69" fill="#FFFFFF"></path>
            <path d="M173.564,248.139 C173.463,247.94 173.346,247.751 173.238,247.558 C182.658,247.477 193.509,246.574 202.748,242.877 C212.902,238.814 225.605,224.918 227.789,208.59 C227.789,208.59 246.914,223.348 241.294,254.936 C236.015,284.598 211.197,294.268 182.89,295.903 C182.875,295.711 186.074,289.104 185.063,285.059 C201.133,286.227 219.107,280.017 227.789,265.738 C235.729,252.67 233.501,230.359 230.236,227.09 C222.276,252.22 193.617,257.328 175.649,256.89 C175.615,253.906 175.002,251.018 173.564,248.139 Z" id="Fill-70" fill="#212121"></path>
            <path d="M180.444,284.578 C176.127,296.944 164.525,326.876 124.906,326.928 C85.281,326.876 73.683,296.944 69.366,284.578 C66.977,277.717 67.159,272.641 69.924,269.486 C71.813,267.33 76.153,264.758 86.044,264.758 L96.377,264.754 C104,264.747 113.571,264.739 124.906,264.735 C136.236,264.739 145.813,264.747 153.434,264.754 L163.763,264.758 C173.656,264.758 177.996,267.33 179.886,269.486 C182.649,272.643 182.833,277.717 180.444,284.578 Z M187.08,264.33 C183.698,260.674 177.48,256.316 163.144,256.316 C163.144,256.316 135.962,256.301 124.955,256.293 C124.94,256.293 124.921,256.293 124.908,256.293 C124.908,256.293 124.874,256.293 124.86,256.293 C113.855,256.301 86.667,256.316 86.667,256.316 C72.333,256.316 66.116,260.676 62.731,264.33 C57.802,269.651 57.03,277.053 60.439,286.305 C69.5,310.931 82.233,335.949 124.858,335.984 L124.858,335.988 C124.874,335.988 124.889,335.984 124.906,335.984 C124.921,335.984 124.936,335.988 124.953,335.988 L124.953,335.984 C167.574,335.947 180.307,310.931 189.371,286.305 C192.781,277.053 192.006,269.651 187.08,264.33 L187.08,264.33 Z" id="Fill-71" fill="#212121"></path>
        </g>
    </g>
</svg>