<?xml version="1.0" encoding="UTF-8"?>
<svg width="920px" height="55px" viewBox="0 0 920 55" version="1.1" xmlns="http://www.w3.org/2000/svg" xmlns:xlink="http://www.w3.org/1999/xlink">
    <!-- Generator: Sketch 46.2 (44496) - http://www.bohemiancoding.com/sketch -->
    <title>Browser</title>
    <desc>Created with Sketch.</desc>
    <defs></defs>
    <g id="Page-1" stroke="none" stroke-width="1" fill="none" fill-rule="evenodd">
        <g id="chrome">
            <g id="Browser">
                <path d="M7.00687082,0 C3.13708292,0 0,3.13457535 0,6.99369875 L0,55 L920,55 L920,6.99369875 C920,3.13118559 916.871305,0 912.993129,0 L7.00687082,0 Z" id="background" fill="#D3D3D3"></path>
                <circle id="object" fill="#E96E4C" cx="25.5" cy="27.5" r="7.5"></circle>
                <path d="M48.5,35 C52.6421356,35 56,31.6421356 56,27.5 C56,23.3578644 52.6421356,20 48.5,20 C44.3578644,20 41,23.3578644 41,27.5 C41,31.6421356 44.3578644,35 48.5,35 Z" id="object" fill="#E6A935"></path>
                <circle id="object" fill="#85C33D" cx="71.5" cy="27.5" r="7.5"></circle>
                <polygon id="search" fill="#FFFFFF" opacity="0.85" points="97 14 97 41 906 41 906 14"></polygon>
            </g>
        </g>
    </g>
</svg>